<svg xmlns="http://www.w3.org/2000/svg" xmlns:xlink="http://www.w3.org/1999/xlink" width="230" zoomAndPan="magnify" viewBox="0 0 172.5 37.5" height="50" preserveAspectRatio="xMidYMid meet" version="1.0"><defs><clipPath id="b67c9d2a7e"><path d="M 11.757812 2.046875 L 160.527344 2.046875 L 160.527344 34.613281 L 11.757812 34.613281 Z M 11.757812 2.046875 " clip-rule="nonzero"/></clipPath></defs><g clip-path="url(#b67c9d2a7e)"><path fill="#535435" d="M 77.359375 23.863281 C 77.359375 21.671875 76.847656 18.6875 72.09375 17.757812 L 72.09375 17.710938 C 72.886719 17.617188 73.679688 17.617188 74.425781 17.617188 C 81.371094 17.617188 85.332031 20.832031 85.332031 25.355469 L 85.332031 30.390625 C 85.332031 33.1875 86.171875 34.351562 87.851562 34.351562 L 87.851562 34.632812 C 87.851562 34.632812 87.335938 34.820312 85.84375 34.820312 C 81.648438 34.820312 77.359375 33.28125 77.359375 27.640625 Z M 141.355469 13.933594 L 144.898438 2.046875 L 160.046875 34.820312 L 151.285156 34.820312 Z M 128.628906 2.1875 L 138.464844 22.699219 L 134.546875 34.957031 L 119.957031 2.1875 Z M 106.066406 2.1875 L 113.757812 2.1875 L 113.757812 25.867188 C 113.757812 31.183594 115.015625 34.210938 120.097656 34.210938 C 122.289062 34.210938 123.546875 33.511719 123.734375 33.421875 L 123.921875 33.792969 C 123.734375 33.933594 122.007812 34.957031 118.511719 34.957031 C 111.613281 34.957031 106.066406 32.628906 106.066406 24.75 Z M 98.949219 34.820312 L 91.394531 34.820312 L 91.394531 2.1875 L 98.949219 2.1875 Z M 69.949219 17.382812 C 69.949219 17.382812 70.367188 17.429688 70.882812 17.429688 C 75.824219 17.429688 76.289062 13.46875 76.289062 10.4375 C 76.289062 3.257812 73.632812 2.652344 69.855469 2.328125 L 69.855469 2.140625 C 70.507812 2.09375 71.765625 2.046875 72.652344 2.046875 C 79.644531 2.046875 83.839844 4.75 83.839844 9.597656 C 83.839844 13.1875 82.023438 17.804688 71.722656 17.804688 C 70.835938 17.804688 70.273438 17.757812 69.949219 17.710938 Z M 54.515625 13.234375 L 58.570312 2.046875 L 72.183594 34.820312 L 63.421875 34.820312 Z M 36.847656 2.140625 C 37.316406 2.09375 38.292969 2.046875 38.898438 2.046875 C 47.617188 2.046875 51.160156 6.335938 51.160156 12.394531 C 51.160156 20.226562 44.261719 22.558594 38.246094 22.558594 C 37.546875 22.558594 36.847656 22.511719 36.195312 22.464844 L 36.195312 22.230469 C 42.441406 22.230469 43.5625 17.429688 43.5625 12.488281 C 43.5625 7.59375 42.300781 2.746094 36.847656 2.328125 Z M 20.941406 13.234375 L 24.996094 2.046875 L 38.609375 34.820312 L 29.84375 34.820312 Z M 11.945312 34.820312 L 14.367188 28.433594 L 16.699219 34.820312 Z M 11.945312 34.820312 " fill-opacity="1" fill-rule="nonzero"/></g></svg>