<?xml version="1.0" encoding="UTF-8"?>
<svg xmlns="http://www.w3.org/2000/svg" viewBox="0 0 190 31" fill="none">
  <g id="Logo">
    <g id="Vector">
      <path d="M64.961 1.62527H62.0255V29.3653H64.961V1.62527Z" fill="#535435"></path>
      <path d="M89.9745 20.4923V1.62527H87.039V20.4923C87.039 25.9643 91.238 30.0018 95.9595 30.0018C96.4345 30.0018 96.9475 29.9638 97.4225 29.8783C93.3375 29.1658 89.9745 25.4798 89.9745 20.4923Z" fill="#535435"></path>
      <path d="M69.122 1.62527H67.26V1.66327C71.307 1.97677 74.708 4.51327 74.708 9.19677C74.708 13.8803 71.2975 16.3693 67.26 16.7303V16.7683H69.122C73.9575 16.7683 77.767 13.7568 77.767 9.19677C77.767 4.63677 73.9575 1.62527 69.122 1.62527Z" fill="#535435"></path>
      <path d="M39.3965 0.98877C38.8835 0.98877 38.323 1.02677 37.81 1.11227C44.1085 1.90077 49.5045 7.61027 49.5045 15.4953C49.5045 23.3803 44.1085 29.0898 37.81 29.8783C38.323 29.9543 38.8835 30.0018 39.3965 30.0018C46.3695 30.0018 52.6775 23.8173 52.6775 15.4953C52.6775 7.17327 46.3695 0.98877 39.3965 0.98877Z" fill="#535435"></path>
      <path d="M2.9355 1.62527H0V29.3653H2.9355V1.62527Z" fill="#535435"></path>
      <path d="M7.0965 1.62527H5.2345V1.66327C9.2815 1.97677 12.6825 4.51327 12.6825 9.19677C12.6825 13.8803 9.272 16.3693 5.2345 16.7303V16.7683H7.0965C11.932 16.7683 15.7415 13.7568 15.7415 9.19677C15.732 4.63677 11.932 1.62527 7.0965 1.62527Z" fill="#535435"></path>
      <path d="M26.1155 15.4953C26.1155 7.61027 31.502 1.90077 37.81 1.11227C37.297 1.03627 36.7365 0.98877 36.2235 0.98877C29.2505 0.98877 22.9425 7.17327 22.9425 15.4953C22.9425 23.8173 29.241 30.0018 36.2235 30.0018C36.7365 30.0018 37.297 29.9638 37.81 29.8783C31.5115 29.0898 26.1155 23.3803 26.1155 15.4953Z" fill="#535435"></path>
      <path d="M182.191 14.8588C181.716 14.8588 181.165 14.8968 180.68 15.0203C184.129 15.5713 186.979 18.2693 186.979 22.4303C186.979 26.5913 184.129 29.2513 180.68 29.8783C181.156 29.9543 181.669 30.0018 182.191 30.0018C186.276 30.0018 190 26.7528 190 22.4303C190 18.1078 186.276 14.8588 182.191 14.8588Z" fill="#535435"></path>
      <path d="M104.87 20.4923C104.87 25.4893 101.46 29.1753 97.4225 29.8878C97.8975 29.9638 98.3725 30.0113 98.8855 30.0113C103.559 30.0113 107.806 25.9643 107.806 20.5018V1.62527H104.87V20.4923Z" fill="#535435"></path>
      <path d="M186.352 7.68627H189.363C189.126 3.80077 185.839 0.98877 182.191 0.98877C181.678 0.98877 181.165 1.02677 180.68 1.15027C183.701 1.73927 186.152 4.07627 186.352 7.68627Z" fill="#535435"></path>
      <path d="M175.019 8.08527C175.019 4.19977 177.593 1.73927 180.69 1.15027C180.215 1.02677 179.702 0.98877 179.179 0.98877C175.417 0.98877 172.007 4.00027 172.007 8.08527C172.007 12.1703 175.417 15.1818 179.179 15.1818C179.692 15.1818 180.206 15.1438 180.69 15.0203C177.593 14.4598 175.019 11.9708 175.019 8.08527Z" fill="#535435"></path>
      <path d="M174.42 22.8293H171.37C171.608 26.9523 175.218 30.0018 179.179 30.0018C179.692 30.0018 180.206 29.9638 180.69 29.8783C177.355 29.2893 174.581 26.7148 174.42 22.8293Z" fill="#535435"></path>
      <path d="M121.714 1.62527H118.626V29.3653H134.349V28.6528H121.714V1.62527Z" fill="#535435"></path>
      <path d="M143.83 20.4923V1.62527H140.895V20.4923C140.895 25.9643 145.094 30.0018 149.815 30.0018C150.29 30.0018 150.803 29.9638 151.278 29.8783C147.193 29.1658 143.83 25.4798 143.83 20.4923Z" fill="#535435"></path>
      <path d="M158.726 20.4923C158.726 25.4893 155.316 29.1753 151.278 29.8878C151.753 29.9638 152.228 30.0113 152.741 30.0113C157.415 30.0113 161.661 25.9643 161.661 20.5018V1.62527H158.726V20.4923Z" fill="#535435"></path>
    </g>
  </g>
</svg>
