<?xml version="1.0" encoding="UTF-8" standalone="no"?>
<!-- Created with Inkscape (http://www.inkscape.org/) -->

<svg
   version="1.1"
   id="svg2"
   viewBox="0 0 190 31"
   sodipodi:docname="logo.eps"
   xmlns:inkscape="http://www.inkscape.org/namespaces/inkscape"
   xmlns:sodipodi="http://sodipodi.sourceforge.net/DTD/sodipodi-0.dtd"
   xmlns="http://www.w3.org/2000/svg"
   xmlns:svg="http://www.w3.org/2000/svg">
  <defs
     id="defs6" />
  <sodipodi:namedview
     id="namedview4"
     pagecolor="#ffffff"
     bordercolor="#535435"
     borderopacity="0.25"
     inkscape:showpageshadow="2"
     inkscape:pageopacity="0.0"
     inkscape:pagecheckerboard="0"
     inkscape:deskcolor="#535435" />
  <g
     id="g8"
     inkscape:groupmode="layer"
     inkscape:label="ink_ext_XXXXXX"
     transform="matrix(1.3333333,0,0,-1.3333333,0,133.33333)">
    <g
       id="g10"
       transform="scale(0.1)">
      <path
         d="m 1987.63,337.113 c 0,66.571 -15.58,157.223 -160.06,185.551 v 1.414 c 24.08,2.84 48.16,2.84 70.83,2.84 211.04,0 331.44,-97.738 331.44,-235.129 V 138.813 c 0,-84.9888 25.49,-120.3989 76.49,-120.3989 V 9.92188 c 0,0 -15.58,-5.67188 -60.91,-5.67188 -127.48,0 -257.79,46.7461 -257.79,218.137 z M 3932.02,638.809 4039.66,1000 4500,4.25 H 4233.71 Z M 3545.33,995.75 3844.2,372.523 3725.21,0 3281.88,995.75 Z m -685.55,0 h 233.71 V 276.203 c 0,-161.469 38.24,-253.535 192.64,-253.535 66.57,0 104.81,21.2461 110.47,24.0742 l 5.68,-11.3203 C 3396.6,31.168 3344.2,0 3237.97,0 3028.34,0 2859.78,70.8203 2859.78,310.203 Z M 2643.51,4.25 h -229.47 v 991.5 h 229.47 z m -881.09,529.746 c 0,0 12.75,-1.414 28.33,-1.414 150.14,0 164.3,120.391 164.3,212.461 0,218.133 -80.73,236.543 -195.46,246.461 v 5.664 c 19.82,1.418 58.07,2.832 84.98,2.832 212.46,0 339.94,-82.156 339.94,-229.461 0,-109.062 -55.24,-249.289 -368.26,-249.289 -26.92,0 -43.92,1.414 -53.83,2.828 z M 1293.52,660.055 1416.74,1000 1830.34,4.25 H 1564.05 Z M 756.691,997.168 c 14.164,1.418 43.911,2.832 62.321,2.832 264.868,0 372.518,-130.309 372.518,-314.445 0,-237.957 -209.632,-308.782 -392.346,-308.782 -21.246,0 -42.493,1.415 -62.325,2.832 v 7.083 c 189.797,0 223.793,145.894 223.793,296.035 0,148.722 -38.242,296.031 -203.961,308.781 z M 273.367,660.055 396.602,1000 810.191,4.25 H 543.906 Z M 0,4.25 73.6523,198.301 144.473,4.25 Z"
         style="fill:#535435;fill-opacity:1;fill-rule:nonzero;stroke:none"
         id="path12" />
    </g>
  </g>
</svg>
